<svg xmlns="http://www.w3.org/2000/svg" xmlns:xlink="http://www.w3.org/1999/xlink" width="35.041" height="29.882" viewBox="0 0 35.041 29.882">
  <defs>
    <clipPath id="clip-path">
      <rect width="35.041" height="29.882" fill="none"/>
    </clipPath>
  </defs>
  <g id="_343._Playlist" data-name="343. Playlist" clip-path="url(#clip-path)">
    <g id="Grupo_311" data-name="Grupo 311">
      <path id="Caminho_204" data-name="Caminho 204" d="M478.326,158.774l-4.251-2.655c-.863-.541-1.563-.153-1.563.865v5.533c0,1.018.7,1.406,1.563.867l4.251-2.656A1.061,1.061,0,0,0,478.326,158.774Zm27.382-1.79H483.578a1.843,1.843,0,0,0-1.844,1.844v1.844a1.843,1.843,0,0,0,1.844,1.844h22.131a1.846,1.846,0,0,0,1.844-1.844v-1.844A1.845,1.845,0,0,0,505.709,156.984ZM474.075,174.45l4.251-2.656c.863-.54.824-1.347-.087-1.8l-4.077-2.038a1.048,1.048,0,0,0-1.65,1.018v4.611C472.512,174.6,473.212,174.989,474.075,174.45Zm31.633-6.4H483.578a1.844,1.844,0,0,0-1.844,1.845v1.844a1.844,1.844,0,0,0,1.844,1.844h22.131a1.846,1.846,0,0,0,1.844-1.844v-1.844A1.845,1.845,0,0,0,505.709,168.049ZM478.326,180.9l-4.251-2.656c-.863-.541-1.563-.152-1.563.866v5.533c0,1.018.7,1.407,1.563.866l4.251-2.654A1.061,1.061,0,0,0,478.326,180.9Zm27.382-1.79H483.578a1.843,1.843,0,0,0-1.844,1.844V182.8a1.844,1.844,0,0,0,1.844,1.844h22.131a1.846,1.846,0,0,0,1.844-1.844v-1.845A1.845,1.845,0,0,0,505.709,179.114Z" transform="translate(-472.512 -155.874)" fill="#32ba69"/>
    </g>
  </g>
</svg>
