<svg xmlns="http://www.w3.org/2000/svg" xmlns:xlink="http://www.w3.org/1999/xlink" width="31.077" height="31.079" viewBox="0 0 31.077 31.079">
  <defs>
    <clipPath id="clip-path">
      <rect width="31.077" height="31.078" fill="none"/>
    </clipPath>
  </defs>
  <g id="ico_metodologia" clip-path="url(#clip-path)">
    <path id="Caminho_345" data-name="Caminho 345" d="M564.635,388.119h-1.942a.971.971,0,1,1,0-1.941h1.942a.971.971,0,1,1,0,1.941ZM592.8,366.753v23.308a3.885,3.885,0,0,1-3.884,3.885H567.548a3.885,3.885,0,0,1-3.885-3.885h.971a2.913,2.913,0,1,0,0-5.827h-.971V372.581h.971a2.914,2.914,0,0,0,0-5.828h-.971a3.885,3.885,0,0,1,3.885-3.885h21.366A3.885,3.885,0,0,1,592.8,366.753Zm-1.942,0a1.944,1.944,0,0,0-1.942-1.942H571.432V392h17.482a1.945,1.945,0,0,0,1.942-1.943Zm-28.164,3.885h1.942a.971.971,0,0,0,0-1.943h-1.942a.971.971,0,0,0,0,1.943Zm25.251-3.885h-13.6a.971.971,0,1,0,0,1.942h13.6a.971.971,0,0,0,0-1.942Zm0,3.885h-13.6a.971.971,0,1,0,0,1.942h13.6a.971.971,0,1,0,0-1.942Zm0,3.884h-13.6a.971.971,0,1,0,0,1.942h13.6a.971.971,0,0,0,0-1.942Zm0,3.885h-13.6a.971.971,0,1,0,0,1.942h13.6a.971.971,0,1,0,0-1.942Zm0,3.884h-13.6a.971.971,0,1,0,0,1.942h13.6a.971.971,0,0,0,0-1.942Zm-5.827,3.885h-7.769a.971.971,0,1,0,0,1.941h7.769a.971.971,0,1,0,0-1.941Z" transform="translate(-561.721 -362.868)" fill="#32ba69"/>
  </g>
</svg>
