<?xml version="1.0" standalone="no"?>
<!DOCTYPE svg PUBLIC "-//W3C//DTD SVG 20010904//EN"
 "http://www.w3.org/TR/2001/REC-SVG-20010904/DTD/svg10.dtd">
<svg version="1.0" xmlns="http://www.w3.org/2000/svg"
 width="319.000000pt" height="319.000000pt" viewBox="0 0 319.000000 319.000000"
 preserveAspectRatio="xMidYMid meet">
<metadata>
Created by potrace 1.11, written by Peter Selinger 2001-2013
</metadata>
<g transform="translate(0.000000,319.000000) scale(0.100000,-0.100000)"
fill="#000000" stroke="none">
<path d="M1545 2931 c-11 -5 -24 -6 -29 -3 -5 3 -6 0 -3 -5 10 -16 -25 -26
-35 -11 -7 10 -9 9 -5 -2 2 -9 -8 -22 -25 -32 -33 -21 -42 -23 -32 -6 4 7 3 8
-5 4 -6 -4 -9 -11 -7 -15 3 -4 -21 -21 -52 -37 -31 -16 -65 -37 -76 -46 -10
-10 -23 -15 -28 -12 -4 3 -8 0 -8 -6 0 -6 -4 -8 -10 -5 -5 3 -10 2 -10 -3 0
-5 -16 -17 -35 -26 -19 -9 -37 -21 -40 -26 -3 -5 -12 -7 -19 -4 -7 3 -16 -2
-19 -10 -6 -15 -70 -49 -93 -49 -7 0 -12 -5 -11 -11 1 -6 -4 -10 -10 -8 -7 1
-13 -3 -13 -9 0 -5 -4 -8 -9 -4 -5 3 -12 1 -16 -5 -4 -6 -11 -7 -17 -4 -7 4
-8 2 -4 -4 3 -6 -3 -16 -15 -22 -17 -10 -20 -9 -13 2 4 7 -5 1 -21 -14 -26
-26 -38 -32 -57 -29 -5 0 -8 -3 -8 -9 0 -5 -15 -16 -34 -24 -18 -8 -37 -19
-40 -25 -4 -6 -16 -11 -27 -11 -11 0 -22 -6 -25 -14 -3 -8 -12 -17 -21 -20
-11 -4 -13 -2 -9 9 3 8 3 15 0 15 -2 0 -9 -12 -15 -27 -7 -16 -13 -23 -16 -15
-3 6 -10 12 -16 12 -5 0 -7 -3 -4 -7 4 -3 2 -12 -4 -20 -10 -11 -15 -11 -27
-1 -13 11 -14 11 -8 -1 5 -8 3 -17 -5 -22 -20 -13 -31 -11 -23 4 4 7 3 9 -2 4
-5 -5 -10 -13 -10 -18 -1 -5 -2 -12 -3 -15 0 -4 -8 -1 -16 6 -13 11 -14 10
-10 -2 4 -9 -5 -22 -20 -34 -25 -18 -36 -42 -13 -28 7 4 8 3 4 -5 -4 -6 -11
-9 -16 -6 -9 6 -32 -19 -28 -31 1 -5 -3 -19 -10 -30 -6 -12 -8 -24 -5 -28 3
-3 -1 -6 -10 -6 -9 0 -18 -4 -21 -9 -4 -5 4 -7 16 -3 l23 6 -19 -30 c-10 -16
-13 -23 -5 -16 18 17 34 15 19 -3 -10 -12 -10 -18 -1 -29 7 -8 12 -33 13 -56
0 -27 7 -49 19 -61 10 -10 14 -21 9 -24 -6 -4 -10 -11 -10 -16 0 -6 5 -7 11
-3 6 3 4 -5 -6 -19 -10 -17 -13 -27 -6 -32 6 -3 11 -1 11 6 0 7 3 9 6 6 4 -4
1 -13 -6 -22 -10 -12 -10 -15 0 -15 8 0 11 -2 8 -5 -3 -3 -12 -3 -20 0 -17 7
-20 65 -3 65 5 0 4 4 -4 9 -9 6 -10 11 -2 15 15 10 14 27 -1 23 -7 -1 -12 3
-13 8 0 6 -3 15 -7 20 -3 6 -4 27 -3 47 2 21 -1 40 -6 43 -5 4 -6 -2 -2 -11 4
-12 3 -15 -6 -10 -14 9 -11 -15 4 -26 6 -5 4 -12 -5 -18 -13 -9 -13 -12 3 -21
17 -10 17 -12 1 -37 -16 -25 -16 -26 -1 -13 22 17 34 7 15 -12 -10 -11 -20
-12 -34 -5 -10 5 -4 -2 13 -17 27 -22 31 -30 23 -46 -6 -10 -7 -19 -3 -19 4 0
-1 -6 -11 -13 -18 -13 -18 -14 -2 -20 22 -9 54 7 37 17 -6 4 -11 2 -11 -3 0
-6 -5 -11 -11 -11 -8 0 -8 5 1 15 9 11 16 12 25 5 6 -5 15 -7 18 -3 4 3 7 2 7
-3 0 -5 -12 -17 -27 -27 l-28 -18 30 6 c17 3 26 2 20 -2 -15 -12 -18 -53 -4
-53 7 0 4 -6 -7 -14 -16 -13 -17 -15 -3 -21 9 -3 16 -13 16 -22 0 -14 -2 -14
-12 1 -17 23 -20 20 -21 -20 0 -31 1 -34 11 -20 15 20 22 20 22 1 0 -8 -4 -12
-8 -10 -3 3 -12 -2 -18 -9 -8 -10 -9 -16 -1 -21 5 -3 10 -1 10 4 0 21 16 11
17 -11 2 -16 0 -19 -6 -9 -6 8 -11 9 -15 3 -4 -6 2 -15 11 -21 10 -6 12 -11 6
-11 -7 0 -13 -7 -13 -16 0 -9 5 -12 12 -8 7 4 8 3 4 -4 -13 -22 -32 -1 -31 33
2 36 -8 38 -25 5 -8 -16 -8 -18 5 -14 8 4 15 1 15 -5 0 -11 -13 -15 -37 -12
-6 1 -14 -3 -18 -9 -4 -6 1 -7 11 -3 12 4 15 3 10 -5 -5 -8 -1 -10 11 -5 16 6
16 5 4 -10 -12 -16 -12 -17 5 -10 17 6 17 5 5 -10 -8 -11 -23 -15 -38 -12 -14
2 -23 1 -19 -2 4 -4 14 -8 22 -9 9 -1 23 -5 32 -9 15 -6 15 -8 -2 -21 -11 -8
-15 -14 -10 -14 5 0 10 -9 11 -21 2 -17 -1 -18 -13 -9 -8 7 -14 8 -14 4 0 -5
9 -15 20 -22 11 -7 20 -17 20 -23 0 -8 -6 -7 -17 2 -17 13 -17 13 -1 -7 21
-25 24 -41 4 -25 -18 15 -34 -5 -17 -22 9 -9 11 -7 5 8 -6 16 -5 18 7 8 20
-19 32 -16 26 7 -7 26 7 34 24 13 10 -12 10 -14 2 -9 -8 4 -13 2 -13 -8 0 -8
3 -16 8 -19 4 -2 1 -2 -7 0 -8 2 -11 -2 -8 -11 3 -7 0 -19 -6 -26 -10 -10 -8
-12 6 -7 10 4 15 3 12 -2 -3 -5 -1 -12 3 -15 10 -6 9 -36 -2 -54 -4 -6 -4 -17
0 -24 4 -7 3 -8 -4 -4 -7 4 -12 1 -12 -9 0 -9 5 -13 10 -10 6 3 10 1 10 -5 0
-7 -7 -9 -16 -6 -9 3 -18 6 -20 6 -3 0 0 9 6 21 17 30 21 61 8 53 -7 -4 -8 -3
-4 4 5 8 2 10 -8 6 -9 -3 -16 -10 -16 -16 0 -5 -5 -6 -12 -2 -6 4 -4 -3 5 -17
22 -31 22 -42 -1 -30 -14 7 -18 6 -18 -9 0 -13 4 -16 12 -9 7 6 16 4 24 -6 11
-14 10 -17 -9 -22 -17 -4 -19 -8 -9 -14 18 -12 28 -11 26 2 -2 6 8 13 22 15
17 3 21 1 11 -5 -9 -6 -10 -11 -2 -15 6 -4 11 -12 11 -19 0 -6 -6 -3 -13 7
-13 17 -14 17 -20 2 -6 -14 -11 -15 -29 -6 l-23 11 21 -18 c21 -19 22 -26 10
-55 -4 -10 -6 -23 -3 -30 3 -7 6 -2 6 11 l1 24 25 -23 c13 -12 22 -27 19 -32
-3 -5 -13 -1 -21 9 -14 16 -14 15 0 -7 13 -22 36 -28 29 -7 -3 9 12 9 21 0 4
-3 -1 -16 -10 -27 -18 -21 -18 -21 3 -3 21 17 22 17 22 -7 0 -15 -5 -23 -11
-19 -6 4 -7 1 -2 -7 6 -10 12 -7 24 9 9 12 27 23 39 24 17 1 21 6 17 22 -5 17
-5 18 5 3 6 -10 19 -15 31 -13 17 3 19 2 9 -10 -7 -8 -16 -12 -21 -9 -15 9
-31 -6 -20 -20 6 -7 6 -17 1 -26 -6 -8 -10 -19 -9 -25 0 -5 5 -1 12 10 12 19
49 34 46 18 -4 -21 2 -33 13 -27 8 5 9 2 5 -10 -5 -12 -3 -15 6 -9 21 13 39
12 33 -2 -3 -10 0 -12 12 -8 14 6 15 4 4 -9 -11 -13 -11 -18 0 -24 7 -4 10 -3
5 1 -4 5 1 17 10 28 11 12 12 17 4 12 -10 -6 -12 -4 -6 5 5 8 4 11 -3 6 -6 -3
-13 -2 -17 4 -4 6 -11 8 -16 5 -5 -4 -9 -1 -9 5 0 6 -4 9 -8 6 -4 -2 -14 -1
-22 5 -13 7 -13 9 0 9 12 1 11 3 -3 11 -9 5 -21 8 -26 4 -5 -3 -13 0 -17 7 -4
7 -3 10 1 5 5 -4 17 0 27 10 10 9 21 13 25 10 3 -4 1 -7 -5 -7 -7 0 -12 -5
-12 -11 0 -5 5 -7 10 -4 6 3 10 1 10 -5 0 -6 5 -8 10 -5 6 4 9 1 8 -6 -2 -6 3
-14 10 -16 7 -3 10 1 6 10 -3 8 -1 18 5 22 7 4 8 0 4 -11 -4 -12 -3 -15 5 -10
7 4 12 2 12 -3 0 -6 -5 -11 -11 -11 -5 0 -7 -5 -4 -10 4 -6 11 -8 16 -4 6 3
17 -2 25 -12 15 -18 15 -18 10 6 -5 24 -4 24 9 6 12 -16 12 -22 2 -28 -14 -9
-14 -9 33 -14 57 -6 60 -7 60 -17 0 -5 -7 -7 -14 -4 -10 4 -13 1 -10 -7 5 -13
9 -15 59 -19 17 -2 29 -8 28 -14 -1 -6 4 -17 12 -23 12 -10 16 -9 21 4 3 9 11
16 17 16 7 0 7 -4 -1 -12 -17 -17 -15 -33 3 -18 11 9 19 8 37 -5 17 -13 18
-16 5 -11 -13 4 -17 2 -14 -6 2 -7 11 -12 21 -10 9 2 16 -2 16 -9 0 -6 8 -9
20 -6 11 3 18 1 14 -4 -12 -20 -12 -48 2 -60 8 -6 14 -8 14 -5 0 4 7 0 16 -8
8 -9 21 -13 27 -9 6 4 8 0 4 -10 -8 -21 11 -33 26 -18 9 9 8 11 -6 5 -13 -5
-16 -2 -11 10 3 9 10 13 15 10 5 -3 15 -2 22 3 16 10 37 13 36 5 -3 -20 2 -32
11 -27 6 4 8 11 5 16 -3 5 1 6 11 2 15 -5 14 -7 -2 -17 -26 -15 -37 -14 -51 4
-11 13 -12 13 -13 -2 0 -10 5 -18 11 -18 5 0 7 -6 3 -12 -5 -9 -2 -9 9 1 19
15 24 2 6 -16 -8 -8 -5 -14 12 -23 21 -9 22 -9 8 2 -13 11 -14 17 -5 29 6 9
17 14 25 11 8 -3 11 0 7 7 -5 7 -1 9 9 5 11 -5 14 -2 9 12 -5 16 -4 16 5 4 8
-11 7 -18 -2 -25 -6 -5 -13 -18 -13 -28 -1 -10 0 -16 3 -13 6 6 27 -14 36 -34
3 -8 5 -1 3 15 -2 17 -9 29 -15 27 -6 -1 -11 2 -11 7 0 5 18 8 39 8 22 0 38
-4 35 -8 -2 -4 4 -10 13 -12 16 -4 16 -5 1 -6 -9 0 -20 4 -23 9 -3 6 -13 10
-21 10 -12 0 -12 -4 -4 -20 6 -11 8 -25 5 -30 -3 -5 -1 -18 5 -27 9 -15 10
-14 4 7 -6 22 -5 23 9 11 9 -7 15 -18 14 -23 -1 -6 13 -12 31 -14 24 -2 32 1
32 14 0 15 -2 15 -10 2 -9 -14 -10 -12 -10 15 0 3 3 5 7 4 4 0 10 8 14 18 7
17 8 17 8 -1 1 -14 4 -16 14 -8 11 9 14 5 15 -18 5 -67 5 -68 30 -64 17 3 22
1 16 -8 -5 -10 -4 -11 7 -1 22 22 33 14 13 -9 -17 -20 -16 -19 12 2 17 14 29
30 26 35 -3 6 1 4 10 -3 16 -13 52 -6 43 8 -3 5 6 7 21 4 15 -3 23 -1 20 5 -4
5 -1 13 5 17 8 4 9 3 5 -4 -4 -7 -2 -12 3 -12 6 0 11 7 11 15 0 14 12 19 33
16 4 0 7 4 7 10 0 8 4 8 14 0 12 -10 14 -8 9 11 -4 18 -3 20 6 8 6 -8 11 -10
11 -4 0 11 86 68 93 63 3 -2 14 4 25 14 15 14 21 15 25 5 4 -11 7 -10 18 1 9
9 9 11 2 7 -7 -4 -13 -3 -13 2 0 4 20 19 45 31 24 12 47 26 50 32 4 5 11 7 16
4 5 -4 12 1 15 9 3 9 10 16 16 16 5 0 7 -4 3 -9 -3 -5 0 -13 6 -17 7 -4 9 -3
5 4 -3 6 -2 13 4 17 6 4 8 10 6 14 -3 4 1 8 9 8 8 0 12 -5 9 -11 -3 -6 1 -3
10 8 8 10 20 15 26 11 6 -3 10 -3 9 2 -4 23 2 32 18 26 12 -5 14 -3 8 8 -8 12
-6 12 8 1 12 -10 20 -11 34 -2 16 9 15 10 -6 4 -16 -4 -21 -3 -17 5 4 6 12 11
18 11 6 0 16 7 23 17 9 13 14 13 20 3 6 -9 4 -11 -5 -5 -9 5 -11 4 -6 -4 11
-16 26 -3 19 16 -4 10 -2 14 5 9 6 -3 13 -2 17 4 3 5 15 10 26 10 11 0 18 4
14 9 -5 9 32 27 48 23 4 -1 7 3 7 9 0 8 5 7 15 -1 13 -11 14 -10 10 2 -8 19
41 53 51 36 4 -7 3 -8 -4 -4 -8 5 -10 2 -6 -9 6 -14 8 -14 20 2 7 10 14 24 14
31 0 11 11 15 28 10 4 -2 6 -7 4 -11 -1 -5 2 -6 7 -2 6 3 8 12 5 20 -4 9 3 18
18 24 13 5 30 16 37 25 11 13 16 14 29 4 13 -11 15 -10 9 5 -3 9 -2 17 3 17
18 0 95 55 99 70 2 8 4 295 4 637 0 491 -2 625 -12 637 -7 9 -81 55 -165 102
-83 48 -166 95 -183 105 -149 85 -226 130 -253 147 -14 9 -27 17 -30 17 -3 0
-21 10 -40 21 -44 27 -346 202 -380 220 -28 15 -64 17 -95 5z m-1079 -699 c-1
-15 -5 -33 -9 -40 -5 -6 -4 -12 0 -12 5 0 9 -10 10 -22 l1 -23 -10 23 c-15 30
-30 28 -18 -2 5 -13 6 -27 3 -30 -6 -6 13 -10 30 -7 5 1 6 -3 2 -8 -3 -6 -13
-7 -22 -4 -11 4 -14 3 -9 -5 5 -8 2 -10 -8 -6 -18 7 -21 20 -6 29 6 4 7 12 3
18 -11 18 -11 49 1 72 5 11 11 25 12 30 3 24 4 26 13 20 5 -3 8 -18 7 -33z
m-6 -157 c-9 -11 -9 -15 -1 -15 7 0 9 -4 6 -10 -3 -5 -10 -10 -14 -10 -12 0
-9 34 3 42 17 12 20 9 6 -7z m733 -30 c-3 -9 -8 -14 -10 -11 -3 3 -2 9 2 15 9
16 15 13 8 -4z m42 5 c-3 -5 -12 -10 -18 -10 -7 0 -6 4 3 10 19 12 23 12 15 0z
m71 -2 c3 -4 -1 -5 -10 -4 -8 1 -18 5 -22 8 -3 4 1 5 10 4 8 -1 18 -5 22 -8z
m219 -17 c2 -11 0 -21 -4 -21 -5 0 -8 11 -8 25 0 30 6 28 12 -4z m35 23 c0 -8
-19 -13 -24 -6 -3 5 1 9 9 9 8 0 15 -2 15 -3z m621 -27 c-10 -9 -11 -8 -5 6 3
10 9 15 12 12 3 -3 0 -11 -7 -18z m63 -6 c-2 -3 -12 3 -22 13 -16 17 -16 18 5
5 12 -7 20 -15 17 -18z m-1120 -1 c-6 -6 -15 -5 -24 1 -13 9 -12 10 3 5 9 -3
17 0 17 6 0 6 3 8 7 5 4 -4 2 -12 -3 -17z m326 4 c0 -2 -7 -4 -15 -4 -8 0 -15
4 -15 10 0 5 7 7 15 4 8 -4 15 -8 15 -10z m697 -3 c0 -11 -5 -17 -9 -15 -7 5
-13 -27 -9 -49 1 -4 -6 -10 -14 -13 -13 -5 -13 -9 -3 -22 8 -10 8 -13 2 -9
-14 8 -26 -17 -18 -37 6 -16 -12 -31 -21 -16 -3 5 1 22 9 38 8 16 12 32 9 35
-3 4 2 9 11 13 9 3 13 10 10 15 -4 8 24 79 32 79 1 0 2 -9 1 -19z m-1686 0
c-9 -6 -10 -11 -2 -15 6 -4 11 -12 11 -19 0 -6 -6 -2 -14 8 -15 21 -12 35 7
35 8 0 8 -3 -2 -9z m629 -20 c0 -6 -4 -12 -8 -15 -5 -3 -9 1 -9 9 0 8 4 15 9
15 4 0 8 -4 8 -9z m362 0 c-18 -11 -18 -12 -3 -38 10 -20 9 -22 -5 -16 -11 4
-15 3 -10 -5 4 -7 -1 -10 -14 -7 -11 2 -22 -1 -25 -6 -4 -5 -12 -6 -18 -2 -19
12 -119 11 -164 -3 -23 -6 -45 -9 -48 -5 -4 3 -11 -2 -16 -12 -6 -9 -14 -15
-20 -12 -5 4 -12 -1 -15 -9 -3 -9 -10 -13 -15 -10 -5 3 -9 0 -9 -6 0 -6 -9
-21 -20 -33 -11 -12 -18 -27 -16 -34 3 -7 -1 -10 -10 -6 -16 6 -19 23 -3 23 5
0 8 4 5 9 -3 5 1 12 10 15 8 3 12 11 8 17 -5 8 -3 9 5 5 8 -5 11 -2 9 9 -2 11
4 19 16 21 10 1 23 9 27 16 5 7 13 14 19 14 5 1 15 2 21 3 5 0 7 6 3 12 -5 8
-1 8 14 0 28 -15 37 -14 23 2 -8 10 -7 14 4 14 8 0 12 -4 9 -9 -3 -4 0 -8 5
-8 6 0 11 4 11 8 0 5 14 9 30 10 17 0 30 -4 30 -9 0 -6 5 -7 10 -4 6 4 8 10 6
14 -3 4 1 8 9 8 8 0 14 -3 13 -6 -2 -21 4 -22 18 -5 8 10 13 13 9 7 -3 -7 -1
-13 4 -13 6 0 11 5 11 12 0 9 3 9 12 0 16 -16 48 3 43 26 -2 12 4 18 18 20 15
1 18 -1 9 -7z m813 -1 c-3 -5 -12 -10 -18 -10 -7 0 -6 4 3 10 19 12 23 12 15
0z m-1214 -19 c-7 -5 -12 -12 -12 -16 1 -5 -5 -10 -14 -11 -8 -1 -15 0 -15 3
0 8 45 42 50 37 2 -3 -1 -9 -9 -13z m482 -30 c-5 -13 -3 -14 8 -3 7 6 18 12
24 12 5 0 3 -5 -5 -10 -10 -6 -11 -10 -2 -10 6 0 12 -5 12 -11 0 -8 -4 -8 -12
-2 -7 6 -21 9 -30 8 -21 -4 -23 6 -5 24 10 11 9 13 -3 9 -10 -4 -16 1 -17 12
-2 17 0 17 17 3 10 -9 16 -23 13 -32z m712 -20 c-6 -5 -25 10 -25 20 0 5 6 4
14 -3 8 -7 12 -15 11 -17z m-1232 6 c7 4 -6 -14 -27 -40 -21 -26 -35 -47 -31
-47 4 0 2 -6 -4 -13 -6 -8 -7 -17 -3 -21 4 -4 3 -7 -3 -6 -21 5 -27 -1 -16
-14 8 -10 9 -16 1 -21 -6 -3 -7 -11 -4 -17 4 -7 2 -8 -4 -4 -7 4 -12 2 -12 -3
0 -6 6 -11 13 -11 9 0 9 -2 -1 -9 -8 -4 -14 -12 -14 -16 0 -4 6 -12 14 -17 10
-7 9 -8 -4 -4 -22 7 -23 -4 -4 -29 8 -11 12 -30 10 -43 -3 -14 -1 -21 6 -17 6
3 7 0 4 -9 -4 -10 -1 -16 7 -16 11 0 11 -3 -1 -10 -9 -6 -11 -10 -3 -10 7 0
10 -7 6 -17 -5 -12 -3 -14 8 -8 8 4 11 5 7 1 -4 -5 2 -17 12 -28 11 -12 16
-27 12 -37 -5 -14 -4 -14 14 -1 10 8 16 11 12 6 -4 -5 15 -26 42 -48 28 -22
48 -44 44 -49 -9 -15 -20 -10 -34 16 -7 13 -16 23 -19 20 -11 -6 -36 13 -36
27 0 7 -6 13 -13 13 -15 0 -33 26 -26 37 3 4 1 8 -4 8 -9 0 -44 63 -48 86 -1
6 -5 21 -9 33 -4 13 -2 21 5 21 6 0 8 5 5 10 -4 6 -10 8 -14 6 -4 -3 -6 12 -5
32 1 20 3 37 4 37 1 0 3 14 5 30 1 17 4 31 5 33 1 1 3 10 4 20 0 11 7 26 13
34 7 8 9 19 5 24 -4 5 -3 6 2 2 10 -9 36 9 36 24 0 6 -8 4 -17 -3 -10 -8 -4 2
12 22 17 19 32 31 33 27 2 -4 9 -5 15 -1z m609 -11 c6 4 8 2 5 -3 -8 -13 17
-36 28 -25 5 4 5 2 2 -4 -4 -7 0 -15 9 -18 8 -3 13 -10 9 -15 -3 -5 -1 -12 5
-16 5 -3 10 -14 10 -23 0 -24 -21 0 -23 27 -1 15 -6 20 -16 16 -9 -3 -13 -3
-9 0 9 10 -24 45 -35 38 -6 -4 -7 -1 -2 7 6 9 4 12 -6 8 -10 -4 -15 1 -16 13
-2 17 0 18 13 4 9 -8 20 -12 26 -9z m146 -11 c-3 -3 -9 2 -12 12 -6 14 -5 15
5 6 7 -7 10 -15 7 -18z m-1341 0 c0 -8 -4 -12 -9 -9 -5 3 -6 10 -3 15 9 13 12
11 12 -6z m1813 0 c0 -12 -19 -12 -23 0 -4 9 -1 12 9 8 7 -3 14 -7 14 -8z
m-450 -25 c0 -5 -2 -10 -4 -10 -3 0 -8 5 -11 10 -3 6 -1 10 4 10 6 0 11 -4 11
-10z m427 -11 c-9 -6 -14 -15 -11 -21 4 -7 2 -8 -4 -4 -7 4 -12 2 -12 -3 0 -6
6 -11 12 -11 7 0 3 -7 -8 -14 -14 -10 -20 -25 -19 -45 1 -16 -3 -29 -8 -28 -5
1 -12 -4 -15 -12 -3 -9 0 -11 8 -6 9 6 11 4 5 -4 -5 -9 -10 -10 -18 -2 -7 7
-7 14 1 24 7 8 9 17 5 20 -3 4 -1 7 6 7 7 0 11 6 8 14 -3 8 0 20 8 26 8 6 12
17 9 24 -6 15 21 46 39 46 7 0 4 -5 -6 -11z m-147 -58 c-5 -10 -7 -20 -5 -23
3 -3 -2 -5 -9 -5 -11 0 -13 5 -5 19 5 10 7 18 4 18 -4 0 -3 5 0 10 11 18 26 0
15 -19z m-240 -11 c0 -5 -5 -10 -11 -10 -5 0 -7 5 -4 10 3 6 8 10 11 10 2 0 4
-4 4 -10z m-127 -25 c-3 -10 0 -15 8 -13 8 2 13 -3 11 -11 -1 -7 4 -24 13 -37
8 -13 12 -24 8 -24 -5 0 -1 -5 7 -10 12 -8 12 -10 1 -10 -10 0 -11 -3 -2 -14
9 -11 9 -16 0 -22 -7 -4 -9 -3 -5 4 3 6 2 13 -4 17 -6 4 -8 10 -5 15 3 5 1 11
-5 15 -6 4 -8 11 -5 16 4 5 1 9 -5 9 -6 0 -9 4 -5 9 3 5 -2 16 -10 24 -17 17
-20 47 -5 47 5 0 7 -7 3 -15z m-673 -5 c0 -5 -5 -10 -11 -10 -5 0 -7 5 -4 10
3 6 8 10 11 10 2 0 4 -4 4 -10z m1027 -17 c0 -9 -4 -10 -14 -2 -7 6 -13 12
-13 14 0 1 6 2 13 2 8 0 14 -6 14 -14z m-1040 -25 c-3 -8 -6 -5 -6 6 -1 11 2
17 5 13 3 -3 4 -12 1 -19z m1017 -19 c-8 -9 -11 -19 -7 -22 3 -4 1 -7 -6 -7
-7 0 -9 -5 -5 -12 5 -7 3 -8 -6 -3 -10 6 -12 4 -7 -10 4 -9 2 -24 -4 -31 -6
-8 -8 -14 -4 -14 4 0 1 -7 -6 -16 -7 -9 -15 -25 -16 -37 -2 -12 -8 -24 -14
-28 -6 -3 -10 -9 -10 -13 3 -20 0 -27 -10 -24 -6 2 -10 7 -9 12 1 5 -4 13 -12
17 -11 7 -10 9 1 9 11 0 10 3 -3 13 -11 8 -17 20 -14 28 3 8 -1 20 -9 27 -7 8
-11 18 -8 23 4 5 1 9 -4 9 -6 0 -11 5 -11 10 0 6 8 5 20 -2 11 -7 18 -18 16
-25 -3 -7 -1 -15 3 -18 5 -3 7 -14 4 -25 -3 -12 0 -20 6 -20 7 0 9 5 6 10 -3
6 -1 10 5 10 7 0 10 -7 7 -15 -4 -8 -2 -17 3 -20 6 -4 10 1 10 9 0 9 4 16 9
16 6 0 8 9 6 20 -2 11 -1 19 3 19 20 -3 25 2 12 11 -11 7 -11 10 -2 10 7 0 10
5 7 10 -4 6 3 25 14 44 11 18 17 37 13 41 -4 5 -1 5 7 0 10 -6 11 -2 6 15 -6
20 -5 21 8 9 13 -12 13 -16 1 -30z m-170 13 c2 -4 0 -14 -6 -22 -8 -12 -9 -12
-5 2 3 9 1 19 -6 22 -9 3 -9 5 0 5 6 1 14 -3 17 -7z m-839 -31 c-1 -8 -7 -16
-14 -17 -7 -2 -7 0 -1 3 7 3 8 9 1 17 -8 9 -7 13 3 13 8 0 13 -7 11 -16z
m1112 12 c-4 -3 -2 -12 3 -18 7 -9 6 -14 -3 -18 -9 -3 -13 2 -11 16 3 28 3 27
11 27 3 0 3 -3 0 -7z m-251 -25 c4 -7 3 -8 -4 -4 -7 4 -12 2 -12 -5 0 -7 -3
-10 -6 -6 -6 5 3 27 11 27 2 0 7 -5 11 -12z m244 -39 c0 -5 -4 -8 -9 -5 -5 3
-11 -4 -14 -15 -4 -16 -2 -19 11 -14 14 5 15 4 5 -6 -18 -18 -33 1 -22 29 8
22 29 31 29 11z m-351 -23 c11 -14 6 -15 -27 -7 -4 1 8 21 12 21 2 0 9 -6 15
-14z m8 -33 c-4 -3 0 -17 8 -30 9 -13 12 -23 9 -23 -4 0 1 -9 11 -20 10 -11
14 -20 9 -20 -5 0 -3 -4 4 -9 11 -7 11 -9 0 -14 -9 -3 -14 3 -15 16 -1 11 -7
23 -14 27 -6 4 -9 12 -5 18 3 5 -1 15 -9 22 -18 15 -20 40 -3 40 6 0 8 -3 5
-7z m318 -13 c-3 -5 -14 -10 -23 -9 -14 0 -13 2 3 9 27 11 27 11 20 0z m-16
-37 c-6 -7 -8 -13 -5 -13 4 0 1 -7 -8 -15 -18 -19 -32 -20 -17 -1 6 8 11 18
10 22 -3 16 1 21 16 21 11 0 12 -4 4 -14z m-1639 -35 c0 -5 4 -7 8 -4 9 6 9
-24 0 -39 -3 -6 -5 -24 -3 -42 1 -18 -2 -30 -6 -28 -4 3 -10 -2 -13 -11 -4
-12 -2 -15 9 -10 8 3 15 1 15 -5 0 -6 -8 -9 -17 -7 -18 3 -27 64 -11 74 5 3 4
12 -2 19 -13 16 -4 39 11 30 5 -4 9 -1 9 4 0 6 -4 11 -9 11 -5 0 -11 7 -14 14
-4 10 -1 13 9 9 7 -3 14 -9 14 -15z m1007 -10 c-3 -8 -6 -5 -6 6 -1 11 2 17 5
13 3 -3 4 -12 1 -19z m-332 -8 c3 -6 -1 -7 -9 -4 -18 7 -21 14 -7 14 6 0 13
-4 16 -10z m279 -2 c-5 -8 -2 -9 10 -5 11 4 15 3 11 -4 -4 -5 -12 -8 -18 -6
-7 2 -17 -3 -22 -10 -6 -8 -17 -15 -25 -16 -8 -2 -19 -5 -25 -8 -17 -9 -38 -5
-41 9 -1 7 0 8 3 2 3 -7 10 -4 19 7 13 17 14 17 7 -2 -6 -19 -5 -19 13 -4 10
9 26 14 34 11 8 -2 12 -1 8 3 -4 4 0 14 10 21 21 17 25 17 16 2z m-180 -36
c12 -2 16 1 10 9 -4 8 -3 10 5 5 6 -4 9 -12 6 -17 -9 -13 -48 -4 -53 12 -2 8
0 10 5 4 4 -5 16 -11 27 -13z m631 -23 c-5 -27 15 -70 29 -62 6 4 5 -1 -2 -10
-8 -9 -10 -22 -6 -28 4 -8 3 -9 -5 -5 -7 4 -10 13 -8 19 2 7 -2 25 -10 40 -8
15 -11 31 -9 36 3 5 -1 14 -9 21 -8 7 -12 16 -9 22 10 15 33 -12 29 -33z m192
19 c-10 -5 -14 -16 -11 -26 5 -14 4 -14 -4 -2 -7 9 -7 19 -2 26 6 6 7 14 3 18
-4 4 1 4 11 0 16 -6 16 -8 3 -16z m-767 -2 c0 -2 -7 -7 -16 -10 -8 -3 -12 -2
-9 4 6 10 25 14 25 6z m240 -12 c0 -8 -19 -13 -24 -6 -3 5 1 9 9 9 8 0 15 -2
15 -3z m-30 -24 c0 -5 -2 -10 -4 -10 -3 0 -8 5 -11 10 -3 6 -1 10 4 10 6 0 11
-4 11 -10z m-20 -19 c0 -6 -62 -41 -82 -47 -5 -1 -10 -3 -13 -4 -3 -1 -9 -4
-15 -5 -5 -1 -11 -3 -12 -5 -2 -1 -26 -3 -54 -4 -36 -2 -51 1 -51 10 0 10 5
10 20 2 17 -8 19 -8 14 5 -5 14 -2 14 19 5 20 -10 27 -9 35 3 7 12 9 12 9 -1
0 -12 2 -12 9 -2 4 7 14 14 22 16 8 1 23 7 34 13 11 5 26 8 33 6 7 -3 12 -1
11 4 -3 17 1 24 11 18 6 -3 10 -10 10 -14z m561 2 c13 -17 13 -17 -6 -3 -11 8
-22 16 -24 17 -2 2 0 3 6 3 6 0 17 -8 24 -17z m-891 -18 c0 5 8 1 18 -8 10
-10 22 -14 25 -10 4 3 7 1 7 -5 0 -7 5 -12 11 -12 5 0 8 4 5 8 -3 5 1 9 7 9 7
0 14 -8 14 -18 1 -15 -2 -16 -30 -7 -18 6 -35 16 -39 22 -5 7 -8 6 -8 -4 0
-12 -2 -12 -9 -2 -4 8 -11 13 -15 13 -20 -3 -25 1 -20 14 5 12 10 13 20 4 8
-6 14 -8 14 -4z m878 -10 c-3 -3 -9 2 -12 12 -6 14 -5 15 5 6 7 -7 10 -15 7
-18z m-8 -22 c0 -5 -5 -15 -10 -23 -7 -12 -9 -10 -7 8 1 19 17 33 17 15z
m-155 -33 c-3 -5 -1 -10 6 -10 10 0 10 -3 2 -11 -17 -17 -37 -1 -22 17 13 16
23 19 14 4z m126 -42 c-8 -20 -9 -18 -9 15 1 26 4 34 10 24 4 -9 4 -26 -1 -39z
m-137 -37 c-3 -3 -11 -6 -17 -6 -7 0 -12 -7 -12 -15 -1 -8 -7 -14 -14 -12 -8
2 -11 -3 -8 -12 4 -9 3 -15 -1 -14 -4 1 -18 -4 -32 -12 -14 -8 -41 -20 -60
-26 -22 -6 -34 -16 -32 -25 2 -10 -1 -9 -14 3 -15 14 -16 20 -5 30 10 11 11 9
5 -5 -6 -17 -5 -18 17 -5 13 7 27 18 31 23 4 6 8 6 8 2 0 -5 6 -5 13 0 12 8
17 9 38 12 5 0 7 6 3 13 -4 7 -3 8 4 4 7 -4 12 -3 12 1 0 5 11 20 24 35 14 14
22 30 18 34 -4 5 1 2 11 -5 9 -8 15 -17 11 -20z m123 -6 c0 -22 -14 -18 -20 4
-3 13 0 18 7 15 7 -3 13 -11 13 -19z m-29 -36 c-7 -5 -9 -9 -4 -9 5 0 2 -8 -7
-18 -10 -10 -14 -21 -11 -24 3 -3 -3 -5 -12 -4 -10 0 -23 -9 -29 -22 -17 -32
-22 -35 -29 -17 -3 9 -2 13 3 10 5 -3 12 4 16 14 3 11 15 23 26 26 10 4 17 10
14 15 -3 4 2 13 10 20 8 7 12 16 9 21 -3 5 2 6 11 2 13 -5 14 -7 3 -14z
m-1508 -11 c0 -18 -2 -20 -9 -8 -6 8 -7 18 -5 22 9 14 14 9 14 -14z m1235
-120 c0 -12 6 -23 14 -26 8 -3 11 0 8 5 -3 5 0 10 7 10 7 0 13 -6 13 -13 0 -7
-4 -11 -9 -8 -4 3 -8 0 -8 -7 0 -7 -8 -5 -22 7 -20 18 -21 18 -15 1 4 -11 3
-16 -4 -12 -6 4 -8 13 -5 21 3 7 1 16 -4 19 -4 3 -7 13 -5 23 2 9 4 19 4 22 3
13 26 -24 26 -42z m168 15 c-3 -8 -13 -11 -24 -8 -15 5 -18 2 -13 -12 5 -15 4
-16 -5 -3 -8 11 -7 18 4 26 20 15 44 13 38 -3z m-58 -34 c-3 -4 -14 -6 -25 -4
-11 2 -20 -1 -20 -7 0 -6 -3 -8 -7 -5 -3 4 2 16 12 27 14 15 21 17 31 9 8 -6
11 -15 9 -20z m-1308 1 c14 -11 21 -20 14 -20 -6 0 -11 -5 -11 -11 0 -5 5 -7
10 -4 6 3 10 2 10 -4 0 -5 -5 -11 -10 -13 -6 -2 -1 -9 11 -16 19 -12 20 -12
14 9 -7 22 -7 22 10 5 15 -15 16 -19 4 -28 -11 -8 -11 -9 2 -5 30 10 37 -8 10
-27 -14 -11 -21 -13 -14 -6 9 10 1 21 -36 50 -44 35 -62 70 -37 70 6 0 4 5 -4
10 -8 5 -11 10 -7 10 5 0 20 -9 34 -20z m103 -66 c0 -8 -19 -13 -24 -6 -3 5 1
9 9 9 8 0 15 -2 15 -3z m317 -200 c-3 -3 -12 -4 -19 -1 -8 3 -5 6 6 6 11 1 17
-2 13 -5z m50 -36 c-3 -8 -6 -5 -6 6 -1 11 2 17 5 13 3 -3 4 -12 1 -19z m179
-97 c-15 -17 -15 -19 1 -32 15 -12 16 -12 10 3 -3 10 -2 20 4 23 5 4 8 1 7 -7
-2 -7 2 -12 9 -11 8 2 10 -4 6 -15 -6 -15 -4 -15 15 2 12 11 22 14 22 9 0 -27
-67 -36 -94 -14 -10 9 -20 15 -22 14 -2 -2 -4 -1 -4 2 0 3 0 12 0 20 0 8 4 15
10 15 5 0 7 -8 4 -17 -4 -14 -1 -12 13 4 10 12 22 22 27 23 5 0 2 -8 -8 -19z
m250 -164 c6 2 11 -9 11 -25 0 -17 -6 -29 -13 -29 -7 0 -11 4 -8 8 2 4 0 10
-6 14 -5 3 -15 15 -21 26 -9 18 -8 19 8 11 10 -5 23 -8 29 -5z m161 -76 c4 0
8 -4 9 -10 2 -8 1 -8 -3 -1 -3 8 -9 7 -19 -1 -11 -9 -15 -8 -20 5 -8 22 -25
20 -17 -1 3 -10 3 -15 -1 -12 -4 4 -8 16 -11 28 -4 20 -3 20 25 6 17 -9 33
-15 37 -14z"/>
<path d="M445 2220 c-3 -5 -3 -10 2 -10 4 0 1 -5 -7 -11 -12 -8 -12 -10 -1 -7
8 2 15 12 17 21 3 19 -2 22 -11 7z"/>
<path d="M1419 1953 c-13 -16 -12 -17 4 -4 9 7 17 15 17 17 0 8 -8 3 -21 -13z"/>
<path d="M979 1913 c-13 -16 -12 -17 4 -4 9 7 17 15 17 17 0 8 -8 3 -21 -13z"/>
<path d="M929 1833 c-13 -16 -12 -17 4 -4 9 7 17 15 17 17 0 8 -8 3 -21 -13z"/>
<path d="M1010 1436 c0 -2 7 -7 16 -10 8 -3 12 -2 9 4 -6 10 -25 14 -25 6z"/>
<path d="M1060 1406 c0 -2 8 -10 18 -17 15 -13 16 -12 3 4 -13 16 -21 21 -21
13z"/>
<path d="M1933 1525 c0 -8 4 -12 9 -9 5 3 6 10 3 15 -9 13 -12 11 -12 -6z"/>
<path d="M430 1468 c0 -4 4 -8 9 -8 6 0 12 4 15 8 3 5 -1 9 -9 9 -8 0 -15 -4
-15 -9z"/>
<path d="M435 1430 c-3 -5 -1 -10 4 -10 6 0 11 5 11 10 0 6 -2 10 -4 10 -3 0
-8 -4 -11 -10z"/>
<path d="M1644 1076 c1 -8 5 -18 8 -22 4 -3 5 1 4 10 -1 8 -5 18 -8 22 -4 3
-5 -1 -4 -10z"/>
<path d="M1746 1052 c-3 -5 1 -9 9 -9 8 0 12 4 9 9 -3 4 -7 8 -9 8 -2 0 -6 -4
-9 -8z"/>
<path d="M447 1026 c-3 -8 2 -20 11 -28 15 -11 16 -11 4 4 -10 13 -10 17 0 20
8 3 9 6 1 11 -6 4 -13 0 -16 -7z"/>
<path d="M1090 616 c0 -2 8 -10 18 -17 15 -13 16 -12 3 4 -13 16 -21 21 -21
13z"/>
<path d="M1346 458 c3 -5 10 -6 15 -3 13 9 11 12 -6 12 -8 0 -12 -4 -9 -9z"/>
<path d="M1426 2908 c3 -5 10 -6 15 -3 13 9 11 12 -6 12 -8 0 -12 -4 -9 -9z"/>
<path d="M416 2285 c-9 -26 -7 -32 5 -12 6 10 9 21 6 23 -2 3 -7 -2 -11 -11z"/>
<path d="M383 2227 c-3 -6 -1 -7 5 -3 5 3 12 1 14 -6 3 -8 6 -7 10 3 7 17 -19
22 -29 6z"/>
<path d="M374 1888 c-4 -7 -3 -8 4 -4 15 9 16 -6 1 -21 -8 -8 -7 -13 2 -18 8
-5 10 -4 5 4 -4 6 0 14 8 17 9 3 16 10 16 14 0 13 -29 20 -36 8z"/>
<path d="M394 1793 c0 -14 8 -19 31 -20 18 -1 22 1 10 4 -11 3 -24 12 -30 20
-9 12 -11 11 -11 -4z"/>
<path d="M400 1745 c14 -17 4 -39 -13 -28 -8 4 -7 1 1 -9 10 -13 10 -17 0 -21
-7 -2 -1 -4 14 -4 15 0 26 3 23 7 -2 4 2 15 9 26 14 19 11 44 -6 44 -5 0 -6
-4 -3 -10 3 -5 1 -10 -4 -10 -6 0 -11 5 -11 10 0 6 -5 10 -11 10 -8 0 -8 -4 1
-15z m28 -25 c-7 -11 -17 -20 -22 -20 -5 0 -1 9 9 20 10 11 20 20 22 20 2 0
-2 -9 -9 -20z"/>
<path d="M399 1661 c7 -5 10 -14 7 -20 -4 -6 -5 -11 -2 -11 3 0 10 8 15 18 8
14 5 18 -12 19 -16 2 -18 0 -8 -6z"/>
<path d="M356 1623 c-6 -14 -5 -15 5 -6 7 7 10 15 7 18 -3 3 -9 -2 -12 -12z"/>
<path d="M405 1620 c-11 -5 -17 -9 -13 -9 3 -1 13 -3 21 -6 8 -4 14 0 14 10 0
8 -1 15 -1 14 -1 0 -10 -4 -21 -9z"/>
<path d="M387 1581 c-4 -17 -3 -21 5 -13 5 5 8 16 6 23 -3 8 -7 3 -11 -10z"/>
<path d="M350 1570 c0 -5 5 -10 11 -10 5 0 7 5 4 10 -3 6 -8 10 -11 10 -2 0
-4 -4 -4 -10z"/>
<path d="M365 1430 c-3 -6 1 -7 9 -4 18 7 21 14 7 14 -6 0 -13 -4 -16 -10z"/>
<path d="M370 1350 c0 -5 5 -10 10 -10 6 0 10 5 10 10 0 6 -4 10 -10 10 -5 0
-10 -4 -10 -10z"/>
<path d="M406 1274 c-9 -8 -16 -21 -16 -27 0 -7 5 -4 11 6 6 9 14 15 19 12 5
-3 11 -1 14 4 11 17 -12 22 -28 5z"/>
<path d="M401 1228 c-12 -20 -12 -21 0 -12 8 6 25 10 39 8 24 -4 24 -3 6 11
-26 20 -29 19 -45 -7z"/>
<path d="M375 1050 c3 -5 8 -10 11 -10 2 0 4 5 4 10 0 6 -5 10 -11 10 -5 0 -7
-4 -4 -10z"/>
<path d="M2566 941 c-3 -4 4 -17 17 -27 22 -19 22 -19 4 2 -9 11 -14 24 -10
27 3 4 4 7 0 7 -3 0 -8 -4 -11 -9z"/>
<path d="M555 910 c-3 -5 -2 -18 4 -27 7 -14 9 -12 8 10 -2 30 -3 31 -12 17z"/>
<path d="M2516 897 c3 -10 9 -15 12 -12 3 3 0 11 -7 18 -10 9 -11 8 -5 -6z"/>
<path d="M535 850 c-3 -5 -1 -10 4 -10 6 0 11 5 11 10 0 6 -2 10 -4 10 -3 0
-8 -4 -11 -10z"/>
<path d="M595 851 c-3 -6 5 -15 17 -21 21 -10 21 -10 6 3 -10 8 -15 17 -11 20
3 4 4 7 0 7 -3 0 -8 -4 -12 -9z"/>
<path d="M655 810 c-3 -5 -1 -10 4 -10 6 0 11 5 11 10 0 6 -2 10 -4 10 -3 0
-8 -4 -11 -10z"/>
<path d="M727 806 c-4 -11 -1 -13 10 -9 9 4 14 2 10 -3 -3 -6 -2 -16 3 -24 7
-12 12 -12 22 -2 6 6 19 12 27 12 13 -1 12 -4 -4 -17 -16 -12 -16 -14 -3 -10
11 4 23 -1 31 -14 8 -11 21 -19 28 -17 9 2 13 -4 11 -17 l-4 -20 17 20 c16 20
16 19 10 -5 l-6 -25 15 25 c9 14 16 23 16 20 7 -30 7 -40 0 -40 -4 0 -11 -8
-14 -17 -6 -16 -6 -16 12 0 20 18 37 23 28 8 -7 -11 13 -9 33 3 11 7 13 5 8
-8 -4 -9 -3 -14 2 -11 5 3 12 -4 16 -15 3 -11 11 -20 17 -20 6 0 6 6 -2 15
-11 13 -10 14 4 9 9 -3 16 -10 16 -15 0 -5 4 -9 8 -9 5 0 9 7 9 15 0 8 -4 12
-8 10 -4 -3 -9 2 -13 10 -3 8 -12 12 -19 9 -15 -5 -31 22 -21 37 7 12 -10 11
-22 -1 -7 -7 -19 -4 -36 9 -14 11 -28 17 -32 14 -3 -3 -6 -1 -6 4 0 6 6 14 13
16 6 3 -3 4 -20 2 -21 -2 -33 1 -33 8 0 9 -2 9 -8 1 -5 -8 -11 -7 -22 4 -8 9
-14 18 -12 19 10 11 -2 22 -20 19 -13 -2 -30 3 -39 11 -14 12 -17 12 -22 -1z
m53 -22 c0 -8 -19 -13 -24 -6 -3 5 1 9 9 9 8 0 15 -2 15 -3z m190 -100 c0 -8
-19 -13 -24 -6 -3 5 1 9 9 9 8 0 15 -2 15 -3z"/>
<path d="M2405 810 c-3 -6 1 -7 9 -4 18 7 21 14 7 14 -6 0 -13 -4 -16 -10z"/>
<path d="M2326 792 c-3 -5 1 -9 9 -9 8 0 15 4 15 9 0 4 -4 8 -9 8 -6 0 -12 -4
-15 -8z"/>
<path d="M2265 759 c-4 -6 -5 -12 -2 -15 2 -3 7 2 10 11 7 17 1 20 -8 4z"/>
<path d="M810 710 c0 -5 5 -10 11 -10 5 0 7 5 4 10 -3 6 -8 10 -11 10 -2 0 -4
-4 -4 -10z"/>
<path d="M2148 683 c7 -3 16 -2 19 1 4 3 -2 6 -13 5 -11 0 -14 -3 -6 -6z"/>
<path d="M2110 648 c0 -4 4 -8 9 -8 6 0 12 4 15 8 3 5 -1 9 -9 9 -8 0 -15 -4
-15 -9z"/>
<path d="M957 639 c7 -7 15 -10 18 -7 3 3 -2 9 -12 12 -14 6 -15 5 -6 -5z"/>
<path d="M2073 625 c0 -8 4 -12 9 -9 4 3 8 9 8 15 0 5 -4 9 -8 9 -5 0 -9 -7
-9 -15z"/>
<path d="M1993 602 c-8 -14 -8 -19 1 -19 7 0 13 9 13 19 1 10 1 18 0 18 -1 0
-7 -8 -14 -18z"/>
<path d="M1034 590 c0 -13 4 -16 10 -10 7 7 7 13 0 20 -6 6 -10 3 -10 -10z"/>
<path d="M1940 575 c-9 -10 -9 -15 -1 -15 6 0 11 6 11 13 0 8 4 7 10 -3 6 -9
10 -10 10 -3 0 19 -17 24 -30 8z"/>
<path d="M1925 530 c-3 -6 1 -7 9 -4 18 7 21 14 7 14 -6 0 -13 -4 -16 -10z"/>
<path d="M1153 517 c0 -8 6 -14 13 -14 7 0 10 6 7 14 -3 7 -8 13 -12 13 -4 0
-8 -6 -8 -13z"/>
<path d="M1827 516 c-16 -12 -16 -14 -2 -20 11 -4 14 -2 9 6 -5 7 -2 9 9 5 11
-4 14 -2 10 9 -3 7 -6 14 -7 14 0 0 -9 -7 -19 -14z"/>
<path d="M1870 519 c0 -5 5 -7 10 -4 6 3 10 8 10 11 0 2 -4 4 -10 4 -5 0 -10
-5 -10 -11z"/>
<path d="M1230 509 c0 -5 5 -7 10 -4 6 3 10 8 10 11 0 2 -4 4 -10 4 -5 0 -10
-5 -10 -11z"/>
<path d="M1792 495 c4 -4 0 -14 -10 -22 -16 -12 -16 -13 2 -6 15 5 17 3 11 -8
-5 -8 -4 -11 0 -6 14 12 14 36 2 44 -7 3 -9 3 -5 -2z"/>
<path d="M1416 438 c3 -4 7 -18 9 -29 5 -27 11 -33 20 -20 3 6 2 11 -4 11 -5
0 -8 11 -5 23 2 16 -1 24 -11 24 -8 0 -12 -4 -9 -9z"/>
<path d="M1691 424 c0 -11 3 -14 6 -6 3 7 2 16 -1 19 -3 4 -6 -2 -5 -13z"/>
<path d="M1733 405 c0 -8 4 -12 9 -9 5 3 6 10 3 15 -9 13 -12 11 -12 -6z"/>
<path d="M1375 390 c3 -5 8 -10 11 -10 2 0 4 5 4 10 0 6 -5 10 -11 10 -5 0 -7
-4 -4 -10z"/>
<path d="M1657 385 c-4 -8 -3 -16 1 -19 4 -3 9 4 9 15 2 23 -3 25 -10 4z"/>
<path d="M1406 372 c-3 -5 1 -9 9 -9 8 0 12 4 9 9 -3 4 -7 8 -9 8 -2 0 -6 -4
-9 -8z"/>
<path d="M1600 370 c-9 -6 -10 -10 -3 -10 6 0 15 5 18 10 8 12 4 12 -15 0z"/>
<path d="M1546 354 c-14 -14 -14 -34 0 -34 3 0 3 4 -1 9 -3 5 5 17 17 25 12 9
17 16 11 16 -6 0 -19 -7 -27 -16z"/>
<path d="M1447 353 c-3 -5 6 -9 20 -10 19 -1 22 1 12 8 -17 11 -26 11 -32 2z"/>
</g>
</svg>
