<svg xmlns="http://www.w3.org/2000/svg" xmlns:xlink="http://www.w3.org/1999/xlink" width="28.381" height="31.529" viewBox="0 0 28.381 31.529">
  <defs>
    <clipPath id="clip-path">
      <rect width="28.38" height="31.529" fill="none"/>
    </clipPath>
  </defs>
  <g id="ico_atualizacaoconstante" transform="translate(0)" clip-path="url(#clip-path)">
    <path id="Caminho_212" data-name="Caminho 212" d="M685.183,266.085a11.342,11.342,0,0,1,4.273-19.827v-2.925a14.188,14.188,0,0,0-6.54,24.551C685.2,270.01,686.618,267.172,685.183,266.085Zm16.369-19.595c-1.453-1.313-3.582.816-2.187,1.871a11.34,11.34,0,0,1-4.233,19.858v2.926a14.188,14.188,0,0,0,6.42-24.654Zm-10.842,2.219,4.619-2.766a.784.784,0,0,0,0-1.464l-4.662-2.821c-.67-.406-1.212-.1-1.208.684l.025,5.677C689.489,248.8,690.037,249.112,690.71,248.709Zm3.208,17.074-4.662,2.82a.784.784,0,0,0,0,1.464l4.619,2.765c.672.4,1.22.094,1.224-.69l.025-5.676C695.13,265.683,694.588,265.377,693.918,265.783Z" transform="translate(-678.104 -241.479)" fill="#fff"/>
  </g>
</svg>
