<svg xmlns="http://www.w3.org/2000/svg" xmlns:xlink="http://www.w3.org/1999/xlink" width="41.512" height="29.578" viewBox="0 0 41.512 29.578">
  <defs>
    <clipPath id="clip-path">
      <rect width="41.511" height="29.578" fill="none"/>
    </clipPath>
  </defs>
  <g id="ico_mail" transform="translate(-0.001)" clip-path="url(#clip-path)">
    <path id="Caminho_167" data-name="Caminho 167" d="M704.975,554.082H673.841a5.064,5.064,0,0,0-5.189,4.929V578.73a5.063,5.063,0,0,0,5.189,4.929h31.134a5.063,5.063,0,0,0,5.189-4.929V559.011A5.064,5.064,0,0,0,704.975,554.082Zm-8.541,13.155,10.984-8.943a2.254,2.254,0,0,1,.151.717V578.73a2.226,2.226,0,0,1-.1.484Zm8.541-10.69a2.485,2.485,0,0,1,.485.094l-16.052,13.072-16.054-13.072a2.482,2.482,0,0,1,.487-.094Zm-33.627,22.664a2.254,2.254,0,0,1-.1-.481V559.011a2.287,2.287,0,0,1,.154-.717l10.98,8.94Zm2.492,1.983a2.661,2.661,0,0,1-.74-.141l11.25-12.214,4.214,3.43a1.341,1.341,0,0,0,1.687,0l4.215-3.43,11.249,12.214a2.63,2.63,0,0,1-.739.141Z" transform="translate(-668.652 -554.082)" fill="#fff"/>
  </g>
</svg>
