<svg xmlns="http://www.w3.org/2000/svg" xmlns:xlink="http://www.w3.org/1999/xlink" width="31.382" height="29.813" viewBox="0 0 31.382 29.813">
  <defs>
    <clipPath id="clip-path">
      <rect width="31.381" height="29.813" fill="none"/>
    </clipPath>
  </defs>
  <g id="ico_instagram" transform="translate(0)" clip-path="url(#clip-path)">
    <path id="Caminho_165" data-name="Caminho 165" d="M641.925,561.518a1.843,1.843,0,1,1-1.84-1.747A1.8,1.8,0,0,1,641.925,561.518Zm-2.291,7.178a7.738,7.738,0,1,1-7.729-7.341A7.552,7.552,0,0,1,639.634,568.7Zm-2.778,0a4.957,4.957,0,1,0-4.95,4.7A4.836,4.836,0,0,0,636.856,568.7Zm10.612,5.952v-11.9a9.211,9.211,0,0,0-9.426-8.955H625.512a9.211,9.211,0,0,0-9.426,8.955v11.9a9.211,9.211,0,0,0,9.426,8.955h12.529A9.211,9.211,0,0,0,647.467,574.647Zm-9.426-18.053a6.326,6.326,0,0,1,6.474,6.151v11.9a6.326,6.326,0,0,1-6.474,6.151H625.512a6.326,6.326,0,0,1-6.474-6.151v-11.9a6.326,6.326,0,0,1,6.474-6.151Z" transform="translate(-616.086 -553.789)" fill="#fff"/>
  </g>
</svg>
