<svg xmlns="http://www.w3.org/2000/svg" xmlns:xlink="http://www.w3.org/1999/xlink" width="29.77" height="29.769" viewBox="0 0 29.77 29.769">
  <defs>
    <clipPath id="clip-path">
      <rect width="29.77" height="29.769" fill="none"/>
    </clipPath>
  </defs>
  <g id="ico_cargahoraria" clip-path="url(#clip-path)">
    <path id="Caminho_336" data-name="Caminho 336" d="M384.511,156.168A14.885,14.885,0,1,0,399.4,171.053,14.885,14.885,0,0,0,384.511,156.168Zm0,26.048a11.164,11.164,0,1,1,11.164-11.164A11.176,11.176,0,0,1,384.511,182.216Zm9.3-11.164a1.86,1.86,0,0,1-1.861,1.861h-7.442a1.861,1.861,0,0,1-1.861-1.861V163.61a1.861,1.861,0,1,1,3.721,0v5.582h5.582A1.859,1.859,0,0,1,393.814,171.053Z" transform="translate(-369.626 -156.168)" fill="#32ba69"/>
  </g>
</svg>
