<svg xmlns="http://www.w3.org/2000/svg" xmlns:xlink="http://www.w3.org/1999/xlink" width="35.396" height="30.335" viewBox="0 0 35.396 30.335">
  <defs>
    <clipPath id="clip-path">
      <rect width="35.396" height="30.335" fill="none"/>
    </clipPath>
  </defs>
  <g id="ico_divididoem" clip-path="url(#clip-path)">
    <path id="Caminho_337" data-name="Caminho 337" d="M594.406,465.81H569.661a2.476,2.476,0,0,0,0,4.95h24.746a2.476,2.476,0,0,0,0-4.95Z" transform="translate(-561.422 -465.81)" fill="#32ba69"/>
    <path id="Caminho_338" data-name="Caminho 338" d="M594.406,481.713H569.661a2.476,2.476,0,0,0,0,4.95h24.746a2.476,2.476,0,0,0,0-4.95Z" transform="translate(-561.422 -473.057)" fill="#32ba69"/>
    <path id="Caminho_339" data-name="Caminho 339" d="M594.406,496.918H569.661a2.476,2.476,0,0,0,0,4.95h24.746a2.476,2.476,0,0,0,0-4.95Z" transform="translate(-561.422 -479.986)" fill="#32ba69"/>
    <path id="Caminho_340" data-name="Caminho 340" d="M594.406,512.447H569.661a2.476,2.476,0,0,0,0,4.95h24.746a2.476,2.476,0,0,0,0-4.95Z" transform="translate(-561.422 -487.062)" fill="#32ba69"/>
    <path id="Caminho_341" data-name="Caminho 341" d="M558.681,470.759a2.475,2.475,0,1,0-2.413-2.475A2.446,2.446,0,0,0,558.681,470.759Z" transform="translate(-556.268 -465.81)" fill="#32ba69"/>
    <path id="Caminho_342" data-name="Caminho 342" d="M558.681,486.663a2.476,2.476,0,1,0-2.413-2.475A2.446,2.446,0,0,0,558.681,486.663Z" transform="translate(-556.268 -473.057)" fill="#32ba69"/>
    <path id="Caminho_343" data-name="Caminho 343" d="M558.681,501.868a2.476,2.476,0,1,0-2.413-2.475A2.446,2.446,0,0,0,558.681,501.868Z" transform="translate(-556.268 -479.986)" fill="#32ba69"/>
    <path id="Caminho_344" data-name="Caminho 344" d="M558.681,517.395a2.476,2.476,0,1,0-2.413-2.475A2.446,2.446,0,0,0,558.681,517.395Z" transform="translate(-556.268 -487.061)" fill="#32ba69"/>
  </g>
</svg>
